<?xml version="1.0" encoding="UTF-8" standalone="no"?>
<!-- Created with Inkscape (http://www.inkscape.org/) -->

<svg
   width="40"
   height="40"
   viewBox="0 0 10.583333 10.583333"
   version="1.1"
   id="svg1"
   inkscape:version="1.3.2 (091e20e, 2023-11-25, custom)"
   sodipodi:docname="logoC_c.svg"
   xml:space="preserve"
   xmlns:inkscape="http://www.inkscape.org/namespaces/inkscape"
   xmlns:sodipodi="http://sodipodi.sourceforge.net/DTD/sodipodi-0.dtd"
   xmlns="http://www.w3.org/2000/svg"
   xmlns:svg="http://www.w3.org/2000/svg"><sodipodi:namedview
     id="namedview1"
     pagecolor="#ffffff"
     bordercolor="#000000"
     borderopacity="0.25"
     inkscape:showpageshadow="2"
     inkscape:pageopacity="0.0"
     inkscape:pagecheckerboard="0"
     inkscape:deskcolor="#d1d1d1"
     inkscape:document-units="mm"
     showguides="true"
     inkscape:zoom="7.11257"
     inkscape:cx="6.6783174"
     inkscape:cy="24.393433"
     inkscape:window-width="1280"
     inkscape:window-height="737"
     inkscape:window-x="-8"
     inkscape:window-y="-8"
     inkscape:window-maximized="1"
     inkscape:current-layer="g16"><sodipodi:guide
       position="0.52916665,10.583333"
       orientation="-1,0"
       id="guide2"
       inkscape:locked="false"
       inkscape:label=""
       inkscape:color="rgb(0,134,229)" /><sodipodi:guide
       position="10.054166,10.583333"
       orientation="-1,0"
       id="guide3"
       inkscape:label=""
       inkscape:locked="false"
       inkscape:color="rgb(0,134,229)" /><sodipodi:guide
       position="0,10.054166"
       orientation="0,1"
       id="guide4"
       inkscape:locked="false"
       inkscape:label=""
       inkscape:color="rgb(0,134,229)" /><sodipodi:guide
       position="0,0.52916665"
       orientation="0,1"
       id="guide5"
       inkscape:label=""
       inkscape:locked="false"
       inkscape:color="rgb(0,134,229)" /></sodipodi:namedview><defs
     id="defs1"><inkscape:path-effect
       effect="powerclip"
       id="path-effect16"
       is_visible="true"
       lpeversion="1"
       inverse="true"
       flatten="false"
       hide_clip="false"
       message="Use fill-rule evenodd on &lt;b&gt;fill and stroke&lt;/b&gt; dialog if no flatten result after convert clip to paths." /><inkscape:perspective
       sodipodi:type="inkscape:persp3d"
       inkscape:vp_x="-1.4467171 : 6.6857756 : 1"
       inkscape:vp_y="0 : 1000 : 0"
       inkscape:vp_z="9.7942143 : 2.8190951 : 1"
       inkscape:persp3d-origin="5.2916665 : 3.5277777 : 1"
       id="perspective2" /><clipPath
       clipPathUnits="userSpaceOnUse"
       id="clipPath16"><circle
         style="display:none;fill:#ff0000;stroke:#313335;stroke-width:0.264583;stroke-dasharray:none"
         id="circle16"
         cx="4.0245042"
         cy="6.1288195"
         r="2.3410513" /></clipPath></defs><g
     id="g16"
     transform="matrix(0.01876681,0,0,0.01876681,0.63160834,0.41802324)"
     inkscape:label="icon-content"><g
       transform="matrix(0.63242,0,0,0.63242,336.75351,-91.893089)"
       id="g2"
       style="stroke-width:11.14644648;stroke-dasharray:none"
       inkscape:label="third"><ellipse
         style="fill:#d8ffd8;stroke:#000000;stroke-width:11.14644648;stroke-dasharray:none"
         cx="127.089"
         cy="486.289"
         rx="132.49699"
         ry="131.75999"
         id="ellipse1"
         inkscape:label="body" /><circle
         style="fill:#d8ffd8;stroke:#000000;stroke-width:11.1464;stroke-dasharray:none"
         cx="-129.302"
         cy="254.23399"
         id="ellipse2"
         r="66.862999"
         transform="scale(-1,1)"
         inkscape:label="head" /></g><g
       transform="matrix(0.81849301,0,0,0.81849301,182.15555,-108.32169)"
       id="g4"
       style="stroke-width:8.61245679;stroke-dasharray:none"
       inkscape:label="second"><ellipse
         style="fill:#d8ffd8;stroke:#000000;stroke-width:8.61245679;stroke-dasharray:none"
         cx="127.089"
         cy="486.289"
         rx="132.49699"
         ry="131.75999"
         id="ellipse3"
         inkscape:label="body" /><circle
         style="fill:#d8ffd8;stroke:#000000;stroke-width:8.61245679;stroke-dasharray:none"
         cx="129.302"
         cy="254.23399"
         id="ellipse4"
         r="66.862999"
         inkscape:label="head" /></g><g
       transform="translate(2.212878,-116.51964)"
       id="g6"
       style="stroke-width:7.04923568;stroke-dasharray:none"
       inkscape:label="first"><ellipse
         style="fill:#ffd8d8;stroke:#000000;stroke-width:7.04923568;stroke-dasharray:none"
         cx="127.089"
         cy="486.289"
         rx="132.49699"
         ry="131.75999"
         id="ellipse5"
         inkscape:label="body" /><circle
         style="fill:#ffd8d8;stroke:#000000;stroke-width:7.04923568;stroke-dasharray:none"
         cx="129.302"
         cy="254.23399"
         id="ellipse6"
         r="66.862999"
         inkscape:label="head" /></g><path
       d="m 116.98595,401.35809 q 0,-9.61403 1.771,-16.44504 2.02401,-7.08403 6.57802,-13.40905 4.80702,-6.32502 12.90304,-13.15603 9.86702,-8.34902 15.18005,-13.91504 5.56601,-5.56602 7.84302,-10.87903 2.277,-5.31302 2.277,-12.90304 0,-12.14403 -7.84302,-18.72205 -7.84302,-6.57802 -22.77006,-6.57802 -12.39704,0 -22.01107,3.28901 -9.61402,3.03601 -18.469048,7.33701 l -7.843023,-17.71005 q 10.120029,-5.31301 22.264061,-8.85502 12.39703,-3.542 27.57708,-3.542 24.03507,0 37.1911,11.89103 13.15604,11.89103 13.15604,32.38409 0,11.38503 -3.79501,19.48105 -3.542,7.84302 -10.37303,14.67405 -6.57802,6.57802 -15.68604,14.16804 -8.34903,7.08402 -12.90303,12.39703 -4.30102,5.31302 -5.81903,10.62603 -1.518,5.06002 -1.518,12.39704 v 4.30101 h -17.71005 z m -5.81902,44.02213 q 0,-9.36103 4.30102,-13.15604 4.55401,-3.79501 11.38503,-3.79501 6.32502,0 10.87903,3.79501 4.55401,3.79501 4.55401,13.15604 0,9.10802 -4.55401,13.15604 -4.55401,4.048 -10.87903,4.048 -6.83102,0 -11.38503,-4.048 -4.30102,-4.04802 -4.30102,-13.15604 z"
       id="text6"
       style="font-size:304px;font-family:Lato;white-space:pre;fill:#444444;stroke-width:0.832239"
       aria-label="?"
       inkscape:label="questionmark" /></g></svg>
