<?xml version="1.0" encoding="UTF-8" standalone="no"?>
<!-- Created with Inkscape (http://www.inkscape.org/) -->

<svg
   width="40"
   height="40"
   viewBox="0 0 10.583333 10.583333"
   version="1.1"
   id="svg1"
   inkscape:version="1.3.2 (091e20e, 2023-11-25, custom)"
   sodipodi:docname="logoC_b.svg"
   xml:space="preserve"
   xmlns:inkscape="http://www.inkscape.org/namespaces/inkscape"
   xmlns:sodipodi="http://sodipodi.sourceforge.net/DTD/sodipodi-0.dtd"
   xmlns="http://www.w3.org/2000/svg"
   xmlns:svg="http://www.w3.org/2000/svg"><sodipodi:namedview
     id="namedview1"
     pagecolor="#ffffff"
     bordercolor="#000000"
     borderopacity="0.25"
     inkscape:showpageshadow="2"
     inkscape:pageopacity="0.0"
     inkscape:pagecheckerboard="0"
     inkscape:deskcolor="#d1d1d1"
     inkscape:document-units="mm"
     showguides="true"
     inkscape:zoom="7.11257"
     inkscape:cx="6.6080193"
     inkscape:cy="24.252837"
     inkscape:window-width="1280"
     inkscape:window-height="737"
     inkscape:window-x="-8"
     inkscape:window-y="-8"
     inkscape:window-maximized="1"
     inkscape:current-layer="g16"><sodipodi:guide
       position="0.52916665,10.583333"
       orientation="-1,0"
       id="guide2"
       inkscape:locked="false"
       inkscape:label=""
       inkscape:color="rgb(0,134,229)" /><sodipodi:guide
       position="10.054166,10.583333"
       orientation="-1,0"
       id="guide3"
       inkscape:label=""
       inkscape:locked="false"
       inkscape:color="rgb(0,134,229)" /><sodipodi:guide
       position="0,10.054166"
       orientation="0,1"
       id="guide4"
       inkscape:locked="false"
       inkscape:label=""
       inkscape:color="rgb(0,134,229)" /><sodipodi:guide
       position="0,0.52916665"
       orientation="0,1"
       id="guide5"
       inkscape:label=""
       inkscape:locked="false"
       inkscape:color="rgb(0,134,229)" /></sodipodi:namedview><defs
     id="defs1"><inkscape:path-effect
       effect="powerclip"
       id="path-effect16"
       is_visible="true"
       lpeversion="1"
       inverse="true"
       flatten="false"
       hide_clip="false"
       message="Use fill-rule evenodd on &lt;b&gt;fill and stroke&lt;/b&gt; dialog if no flatten result after convert clip to paths." /><inkscape:perspective
       sodipodi:type="inkscape:persp3d"
       inkscape:vp_x="-1.4467171 : 6.6857756 : 1"
       inkscape:vp_y="0 : 1000 : 0"
       inkscape:vp_z="9.7942143 : 2.8190951 : 1"
       inkscape:persp3d-origin="5.2916665 : 3.5277777 : 1"
       id="perspective2" /><clipPath
       clipPathUnits="userSpaceOnUse"
       id="clipPath16"><circle
         style="display:none;fill:#ff0000;stroke:#313335;stroke-width:0.264583;stroke-dasharray:none"
         id="circle16"
         cx="4.0245042"
         cy="6.1288195"
         r="2.3410513" /></clipPath></defs><g
     id="g16"
     transform="matrix(0.01876681,0,0,0.01876681,0.63160834,0.41802324)"><g
       transform="matrix(0.63242,0,0,0.63242,336.75351,-91.893089)"
       id="g2"
       inkscape:label="third"><ellipse
         style="fill:#d8ffd8;stroke:#000000;stroke-width:2.2292893;stroke-dasharray:none"
         cx="127.089"
         cy="486.289"
         rx="132.49699"
         ry="131.75999"
         id="ellipse1"
         inkscape:label="body" /><circle
         style="fill:#d8ffd8;stroke:#000000;stroke-width:2.2292893;stroke-dasharray:none"
         cx="129.302"
         cy="254.23399"
         id="ellipse2"
         r="66.862999"
         inkscape:label="head" /></g><g
       transform="matrix(0.81849301,0,0,0.81849301,182.15555,-108.32169)"
       id="g4"
       style="stroke-width:1.72249136;stroke-dasharray:none"
       inkscape:label="second"><ellipse
         style="fill:#d8ffd8;stroke:#000000;stroke-width:1.72249136;stroke-dasharray:none"
         cx="127.089"
         cy="486.289"
         rx="132.49699"
         ry="131.75999"
         id="ellipse3"
         inkscape:label="body" /><circle
         style="fill:#d8ffd8;stroke:#000000;stroke-width:1.72249136;stroke-dasharray:none"
         cx="129.302"
         cy="254.23399"
         id="ellipse4"
         r="66.862999"
         inkscape:label="head" /></g><g
       transform="translate(2.212878,-116.51964)"
       id="g6"
       inkscape:label="first"><ellipse
         style="fill:#ffd8d8;stroke:#000000;stroke-width:1.40984714;stroke-dasharray:none"
         cx="127.089"
         cy="486.289"
         rx="132.49699"
         ry="131.75999"
         id="ellipse5"
         inkscape:label="body" /><circle
         style="fill:#ffd8d8;stroke:#000000;stroke-width:1.40984714;stroke-dasharray:none"
         cx="129.302"
         cy="254.23399"
         id="ellipse6"
         r="66.862999"
         inkscape:label="head" /></g><path
       d="m 113.416,407.835 q 0,-11.552 2.128,-19.76 2.432,-8.512 7.904,-16.112 5.776,-7.6 15.504,-15.808 11.856,-10.032 18.24,-16.72 6.688,-6.688 9.424,-13.072 2.736,-6.384 2.736,-15.504 0,-14.592 -9.424,-22.496 -9.424,-7.904 -27.36,-7.904 -14.896,0 -26.448,3.952 -11.551997,3.648 -22.191997,8.816 l -9.424,-21.28 q 12.16,-6.384 26.751997,-10.64 14.896,-4.256 33.136,-4.256 28.88,0 44.688,14.288 15.808,14.288 15.808,38.912 0,13.68 -4.56,23.408 -4.256,9.424 -12.464,17.632 -7.904,7.904 -18.848,17.024 -10.032,8.512 -15.504,14.896 -5.168,6.384 -6.992,12.768 -1.824,6.08 -1.824,14.896 v 5.168 h -21.28 z m -6.992,52.896 q 0,-11.248 5.168,-15.808 5.472,-4.56 13.68,-4.56 7.6,0 13.072,4.56 5.472,4.56 5.472,15.808 0,10.944 -5.472,15.808 -5.472,4.864 -13.072,4.864 -8.208,0 -13.68,-4.864 -5.168,-4.864 -5.168,-15.808 z"
       id="text6"
       style="font-size:304px;font-family:Lato;white-space:pre;fill:#444444"
       aria-label="?"
       inkscape:label="questionmark" /></g></svg>
