<?xml version="1.0" encoding="UTF-8" standalone="no"?>
<svg
   width="40px"
   height="40px"
   viewBox="0 0 500 500"
   version="1.1"
   id="svg6"
   sodipodi:docname="pluginIcon2.svg"
   inkscape:version="1.3.2 (091e20e, 2023-11-25, custom)"
   xmlns:inkscape="http://www.inkscape.org/namespaces/inkscape"
   xmlns:sodipodi="http://sodipodi.sourceforge.net/DTD/sodipodi-0.dtd"
   xmlns="http://www.w3.org/2000/svg"
   xmlns:svg="http://www.w3.org/2000/svg">
  <defs
     id="defs1" />
  <sodipodi:namedview
     id="namedview1"
     pagecolor="#ffffff"
     bordercolor="#000000"
     borderopacity="0.25"
     inkscape:showpageshadow="2"
     inkscape:pageopacity="0.0"
     inkscape:pagecheckerboard="0"
     inkscape:deskcolor="#d1d1d1"
     inkscape:zoom="6.2375"
     inkscape:cx="16.913828"
     inkscape:cy="24.92986"
     inkscape:window-width="1280"
     inkscape:window-height="737"
     inkscape:window-x="-8"
     inkscape:window-y="-8"
     inkscape:window-maximized="1"
     inkscape:current-layer="svg6" />
  <g
     transform="matrix(0.632420003414154, 0, 0, 0.632420003414154, 336.7535095214844, -91.8930892944336)"
     style="stroke-width:19.76534571;stroke-dasharray:none;stroke:#ffffff;stroke-opacity:1;fill:#008000;fill-opacity:1"
     id="g2">
    <ellipse
       style="fill:#008000;stroke:#ffffff;stroke-width:19.76534571;stroke-dasharray:none;stroke-opacity:1;fill-opacity:1"
       cx="127.089"
       cy="486.289"
       rx="132.497"
       ry="131.76"
       id="ellipse1" />
    <ellipse
       style="fill:#008000;stroke:#ffffff;stroke-width:19.76534571;stroke-dasharray:none;stroke-opacity:1;fill-opacity:1"
       cx="129.302"
       cy="254.234"
       rx="66.863"
       ry="66.863"
       id="ellipse2" />
  </g>
  <g
     transform="matrix(0.8184930086135863, 0, 0, 0.8184930086135863, 182.15554809570312, -108.32168579101562)"
     style="stroke-width:15.27196918;stroke-dasharray:none;stroke:#ffffff;stroke-opacity:1;fill:#008000;fill-opacity:1"
     id="g4">
    <ellipse
       style="fill:#008000;stroke:#ffffff;stroke-width:15.27196918;stroke-dasharray:none;stroke-opacity:1;fill-opacity:1"
       cx="127.089"
       cy="486.289"
       rx="132.497"
       ry="131.76"
       id="ellipse3" />
    <ellipse
       style="fill:#008000;stroke:#ffffff;stroke-width:15.27196918;stroke-dasharray:none;stroke-opacity:1;fill-opacity:1"
       cx="129.302"
       cy="254.234"
       rx="66.863"
       ry="66.863"
       id="ellipse4" />
  </g>
  <g
     transform="matrix(0.9999999999999999, 0, 0, 0.9999999999999999, 2.2128779888153076, -116.51963806152344)"
     id="g6"
     style="stroke-width:12.5;stroke-dasharray:none;stroke:#ffffff;stroke-opacity:1;fill:#800000;fill-opacity:1">
    <ellipse
       style="fill:#800000;stroke:#ffffff;stroke-width:12.5;stroke-dasharray:none;stroke-opacity:1;fill-opacity:1"
       cx="127.089"
       cy="486.289"
       rx="132.497"
       ry="131.76"
       id="ellipse5" />
    <ellipse
       style="fill:#800000;stroke:#ffffff;stroke-width:12.5;stroke-dasharray:none;stroke-opacity:1;fill-opacity:1"
       cx="129.302"
       cy="254.234"
       rx="66.863"
       ry="66.863"
       id="ellipse6" />
  </g>
  <path
     d="m 117.71707,400.03164 q 0,-9.21714 1.69789,-15.76616 1.94045,-6.79157 6.30646,-12.85547 4.60857,-6.06391 12.37037,-12.61293 9.45969,-8.00435 14.55337,-13.34059 5.33624,-5.33623 7.51924,-10.42991 2.18301,-5.09368 2.18301,-12.37037 0,-11.6427 -7.51925,-17.94916 -7.51924,-6.30646 -21.83005,-6.30646 -11.88526,0 -21.10239,3.15323 -9.21714,2.91067 -17.706603,7.03413 l -7.519242,-16.97893 q 9.702248,-5.09368 21.344945,-8.48947 11.88525,-3.39579 26.43862,-3.39579 23.04284,0 35.65577,11.40014 12.61292,11.40015 12.61292,31.0472 0,10.91503 -3.63835,18.67682 -3.39578,7.51925 -9.9448,14.06826 -6.30646,6.30647 -15.03848,13.58315 -8.00436,6.79157 -12.37037,11.88526 -4.12346,5.09368 -5.57879,10.18736 -1.45534,4.85112 -1.45534,11.88525 v 4.12345 h -16.97893 z m -5.5788,42.20478 q 0,-8.97458 4.12346,-12.61293 4.36601,-3.63834 10.91503,-3.63834 6.0639,0 10.42991,3.63834 4.36602,3.63835 4.36602,12.61293 0,8.73202 -4.36602,12.61292 -4.36601,3.8809 -10.42991,3.8809 -6.54902,0 -10.91503,-3.8809 -4.12346,-3.8809 -4.12346,-12.61292 z"
     id="text6"
     style="font-size:304px;font-family:Lato;white-space:pre;fill:#fdfdfd;fill-opacity:1;stroke-width:0.797882"
     aria-label="?" />
</svg>
