<?xml version="1.0" encoding="UTF-8" standalone="no"?>
<!-- Created with Inkscape (http://www.inkscape.org/) -->

<svg
   width="40"
   height="40"
   viewBox="0 0 10.583333 10.583333"
   version="1.1"
   id="svg1"
   inkscape:version="1.3.2 (091e20e, 2023-11-25, custom)"
   sodipodi:docname="pluginIcon.svg"
   xml:space="preserve"
   xmlns:inkscape="http://www.inkscape.org/namespaces/inkscape"
   xmlns:sodipodi="http://sodipodi.sourceforge.net/DTD/sodipodi-0.dtd"
   xmlns="http://www.w3.org/2000/svg"
   xmlns:svg="http://www.w3.org/2000/svg"><sodipodi:namedview
     id="namedview1"
     pagecolor="#ffffff"
     bordercolor="#000000"
     borderopacity="0.25"
     inkscape:showpageshadow="2"
     inkscape:pageopacity="0.0"
     inkscape:pagecheckerboard="0"
     inkscape:deskcolor="#d1d1d1"
     inkscape:document-units="mm"
     showguides="true"
     inkscape:zoom="5.0293465"
     inkscape:cx="-8.6492351"
     inkscape:cy="33.304526"
     inkscape:window-width="1280"
     inkscape:window-height="737"
     inkscape:window-x="-8"
     inkscape:window-y="-8"
     inkscape:window-maximized="1"
     inkscape:current-layer="svg1"><sodipodi:guide
       position="0.52916665,10.583333"
       orientation="-1,0"
       id="guide2"
       inkscape:locked="false"
       inkscape:label=""
       inkscape:color="rgb(0,134,229)" /><sodipodi:guide
       position="10.054166,10.583333"
       orientation="-1,0"
       id="guide3"
       inkscape:label=""
       inkscape:locked="false"
       inkscape:color="rgb(0,134,229)" /><sodipodi:guide
       position="0,10.054166"
       orientation="0,1"
       id="guide4"
       inkscape:locked="false"
       inkscape:label=""
       inkscape:color="rgb(0,134,229)" /><sodipodi:guide
       position="0,0.52916665"
       orientation="0,1"
       id="guide5"
       inkscape:label=""
       inkscape:locked="false"
       inkscape:color="rgb(0,134,229)" /></sodipodi:namedview><defs
     id="defs1"><inkscape:path-effect
       effect="powerclip"
       id="path-effect16"
       is_visible="true"
       lpeversion="1"
       inverse="true"
       flatten="false"
       hide_clip="false"
       message="Use fill-rule evenodd on &lt;b&gt;fill and stroke&lt;/b&gt; dialog if no flatten result after convert clip to paths." /><inkscape:perspective
       sodipodi:type="inkscape:persp3d"
       inkscape:vp_x="-1.4467171 : 6.6857756 : 1"
       inkscape:vp_y="0 : 1000 : 0"
       inkscape:vp_z="9.7942143 : 2.8190951 : 1"
       inkscape:persp3d-origin="5.2916665 : 3.5277777 : 1"
       id="perspective2" /><clipPath
       clipPathUnits="userSpaceOnUse"
       id="clipPath16"><circle
         style="display:none;fill:#ff0000;stroke:#313335;stroke-width:0.264583;stroke-dasharray:none"
         id="circle16"
         cx="4.0245042"
         cy="6.1288195"
         r="2.3410513" /></clipPath></defs><path
     style="fill:#000000;stroke:none"
     d="M 8.0314475,8.8388471 C 7.6547544,8.7916363 7.2916696,8.6116281 7.0264766,8.3406081 L 6.8973218,8.2086154 H 4.199989 c -2.6752759,0 -2.6983528,-3.816e-4 -2.8220763,-0.046672 C 1.2263056,8.1052194 1.0608296,7.9504708 0.98310864,7.792733 L 0.92772633,7.6803324 V 5.2637184 2.8471044 L 0.98310864,2.7347037 C 1.0609982,2.5766238 1.2262765,2.4222282 1.3786301,2.3652254 l 0.1254609,-0.046941 3.6121202,0.00589 3.6121203,0.00589 0.096554,0.051554 c 0.1422455,0.075951 0.2699315,0.2003293 0.3379353,0.3291818 l 0.060074,0.1138271 0.00624,1.4931837 0.00624,1.4931836 0.1742409,0.1815861 c 0.2141886,0.2232178 0.3176454,0.3903038 0.412455,0.6661274 0.068242,0.198531 0.072989,0.2320824 0.072989,0.5158244 0,0.2811301 -0.00516,0.318464 -0.070001,0.5069044 C 9.7245738,7.973456 9.6151359,8.1470757 9.3935743,8.3659763 9.2527577,8.5051018 9.1504172,8.5831214 9.0171895,8.6529146 8.7214133,8.807861 8.3472816,8.8784305 8.0314475,8.8388471 Z M 8.5035302,8.4895182 C 8.7657444,8.4344656 8.9721105,8.3182669 9.1779341,8.109781 9.4692933,7.8146532 9.585453,7.5139949 9.5653254,7.107089 9.5366283,6.5269391 9.1806467,6.0721812 8.6046908,5.8799013 8.4118521,5.8155231 8.0352695,5.8209837 7.8206804,5.8912696 7.266208,6.0728801 6.8884071,6.5887404 6.8890905,7.1632894 c 5.485e-4,0.4611087 0.2020731,0.8519425 0.573943,1.1130965 0.1415322,0.099394 0.3936211,0.2041061 0.5571739,0.231437 0.1248129,0.020857 0.3346465,0.01291 0.4833228,-0.018305 z M 7.9964458,7.6072719 C 7.55682,7.1536018 7.5256445,7.1156462 7.5256445,7.0340785 c 0,-0.096134 0.064228,-0.1592841 0.1620037,-0.1592841 0.061865,0 0.1026675,0.03308 0.3027039,0.2454081 l 0.231201,0.245408 0.1409885,-0.1461778 C 8.4400853,7.1390349 8.6100339,6.9594749 8.740205,6.8204104 9.0012996,6.5414777 9.0514129,6.5176815 9.1564758,6.6227444 9.2405004,6.706769 9.2275706,6.7778261 9.1038904,6.9117336 8.7198206,7.3275625 8.3418623,7.7293501 8.3128212,7.7526778 8.2342463,7.8157944 8.1698189,7.7861836 7.9964458,7.6072719 Z M 6.6938797,7.8718684 c 0,-0.012114 -0.014968,-0.060165 -0.033262,-0.1067806 C 6.5970205,7.6030317 6.5596615,7.3868451 6.5593312,7.1789671 6.5581874,6.459121 6.9985546,5.8335568 7.6758306,5.5929224 8.0134362,5.4729721 8.392191,5.4680985 8.746392,5.5791471 c 0.076615,0.02402 0.1468875,0.043804 0.1561605,0.043963 0.026733,4.599e-4 0.020362,-2.5826539 -0.00661,-2.6797674 C 8.867903,2.8423797 8.7818229,2.7356051 8.6863135,2.683316 8.6206863,2.6473867 8.3767058,2.6447832 5.0753103,2.6447832 c -3.3288155,0 -3.5449215,0.00235 -3.6125188,0.039317 -0.039544,0.021624 -0.1002405,0.076475 -0.1348808,0.1218908 l -0.062982,0.082574 v 2.3751536 2.3751535 l 0.062734,0.082249 c 0.071352,0.093547 0.1280999,0.1293452 0.2407476,0.1518699 0.1270812,0.025411 5.1254697,0.024316 5.1254697,-0.00112 z M 1.8831319,7.2869301 C 1.8257276,7.2295259 1.8236613,7.1047088 1.8792819,7.0543729 1.9169125,7.0203177 2.0965905,7.0171685 4.0020226,7.0171685 H 6.083653 l 0.046592,0.059232 c 0.025626,0.032578 0.046592,0.076736 0.046592,0.098129 0,0.021393 -0.020966,0.065551 -0.046592,0.098129 L 6.083653,7.3318903 H 4.0058726 c -2.047807,0 -2.0784291,-6.485e-4 -2.1227407,-0.04496 z M 1.8974036,6.161292 c -0.052642,-0.041408 -0.059232,-0.062142 -0.059232,-0.1863581 0,-0.4704744 0.3160747,-0.9582348 0.7650854,-1.1806649 0.5276844,-0.2614034 1.1353668,-0.1760599 1.5545031,0.2183158 0.2609147,0.2455011 0.4000711,0.5102409 0.4475208,0.8513913 0.027174,0.1953753 0.00556,0.2780205 -0.083311,0.3185115 -0.039299,0.017906 -0.4258293,0.025396 -1.3105366,0.025396 -1.2354059,0 -1.2557133,-7.2e-4 -1.3140298,-0.046592 z M 4.2555394,5.7863814 C 4.2281115,5.637111 4.1053768,5.4213882 3.9719856,5.2879969 3.546475,4.8624864 2.8742827,4.8724649 2.4564734,5.3104943 2.3327963,5.4401569 2.2168757,5.6494639 2.1866877,5.7976215 l -0.014886,0.07306 h 1.0496141 1.049614 z m 0.7748107,-0.0281 c -0.024978,-0.024978 -0.04496,-0.074934 -0.04496,-0.1124006 0,-0.037467 0.019982,-0.087423 0.04496,-0.1124007 0.043516,-0.043516 0.074934,-0.04496 0.9778857,-0.04496 0.9029518,0 0.9343699,0.00144 0.9778856,0.04496 0.024978,0.024978 0.04496,0.074934 0.04496,0.1124007 0,0.037467 -0.019982,0.087423 -0.04496,0.1124006 -0.043516,0.043516 -0.074934,0.04496 -0.9778856,0.04496 -0.9029519,0 -0.93437,-0.00144 -0.9778857,-0.04496 z m -0.00776,-0.9627956 c -0.051188,-0.056562 -0.047216,-0.1736798 0.00776,-0.2286513 0.043978,-0.043978 0.074934,-0.04496 1.4162482,-0.04496 1.3413144,0 1.3722707,9.827e-4 1.4162482,0.04496 0.053784,0.053784 0.058189,0.1509502 0.00997,0.2197994 l -0.034995,0.049962 H 6.4488077 c -1.3170999,0 -1.3909353,-0.00213 -1.4262135,-0.04111 z M 3.0858188,4.3885581 C 2.7856577,4.3159523 2.5811575,4.0364097 2.6084022,3.7359507 2.6286172,3.5130164 2.752716,3.3266539 2.9446394,3.2310145 3.1609377,3.1232285 3.4429246,3.158978 3.6314029,3.3180805 3.8242918,3.4809062 3.8948483,3.7877679 3.7935437,4.0232569 3.6763187,4.2957536 3.3654692,4.4562026 3.0858188,4.3885581 Z M 3.3294781,4.0511685 C 3.5247308,3.9769335 3.5706245,3.7035765 3.4104613,3.568808 3.2163,3.405432 2.9400192,3.5363761 2.939782,3.7918879 2.9396015,3.9863667 3.1433552,4.1219323 3.3294781,4.0511685 Z M 5.0977905,3.8767224 C 4.9818999,3.8332848 4.9456978,3.684841 5.0303501,3.6001887 c 0.044085,-0.044085 0.074934,-0.04496 1.5848492,-0.04496 1.5099154,0 1.540764,8.751e-4 1.5848491,0.04496 0.060589,0.060589 0.059387,0.1822938 -0.00235,0.2381773 -0.045438,0.041129 -0.1070619,0.042986 -1.556749,0.04691 -0.830191,0.00225 -1.5246123,-0.0016 -1.5431584,-0.00855 z"
     id="path1" /><path
     style="fill:#ffff98;stroke-width:0.0497082;fill-opacity:1;stroke:none"
     d="m 8.3120517,21.896483 c 0.2315938,-0.985155 1.2806851,-2.211753 2.3003963,-2.689625 0.507535,-0.237849 0.689403,-0.267979 1.615781,-0.267689 0.961069,3e-4 1.09091,0.02396 1.63685,0.298249 1.018593,0.511761 1.934534,1.629387 2.179215,2.659065 l 0.06497,0.273395 H 12.178521 8.2477809 Z"
     id="path2"
     transform="scale(0.26458333)" /><path
     style="fill:#ffff98;stroke-width:0.0497082;fill-opacity:1;stroke:none"
     d="m 11.474958,15.019538 c -0.771055,-0.771055 0.06433,-2.066902 1.063356,-1.649481 1.029969,0.430348 0.749985,1.940083 -0.359793,1.940083 -0.323875,0 -0.475651,-0.06269 -0.703563,-0.290602 z"
     id="path3"
     transform="scale(0.26458333)" /><path
     style="fill:#ffff98;stroke-width:0.0497082;fill-opacity:1;stroke:none"
     d="m 9.9319503,29.735657 c -4.61153,-0.0644 -4.3874653,-0.03671 -4.8829879,-0.603428 L 4.8288506,28.880492 4.8252753,19.878621 4.8217,10.876751 5.2241565,10.483762 5.6266129,10.090774 H 19.190517 32.754422 l 0.360759,0.36076 c 0.246617,0.246617 0.387319,0.498257 0.444702,0.795332 0.04617,0.239015 0.08589,2.576002 0.08827,5.193305 l 0.0043,4.758732 -0.223687,-0.06353 c -1.101462,-0.312835 -1.582407,-0.37427 -2.609683,-0.33336 -0.840648,0.03348 -1.261594,0.102875 -1.819997,0.300044 -1.956962,0.69099 -3.522281,2.390035 -4.052103,4.398275 -0.09638,0.365314 -0.156806,1.001073 -0.155913,1.640372 0.0013,0.941895 0.04477,1.218914 0.370402,2.361142 l 0.06377,0.223687 H 21.94897 c -1.80195,0 -4.278911,0.01574 -5.504356,0.03498 -1.225447,0.01924 -4.156158,0.0081 -6.5126927,-0.02485 z m 13.3174707,-2.29971 c 0.171655,-0.290589 0.171332,-0.312588 -0.0091,-0.621353 l -0.187087,-0.320098 h -7.907525 c -6.5561667,0 -7.935614,0.02332 -8.0718792,0.136443 -0.3050269,0.253231 -0.1603156,0.896591 0.2333136,1.03727 0.082019,0.02931 3.6625516,0.05683 7.9567386,0.06114 l 7.807614,0.0078 z m -6.02278,-4.128416 c 0.184639,-0.129326 0.220954,-0.248442 0.220954,-0.724737 0,-1.293217 -0.489548,-2.392411 -1.539256,-3.456129 -1.145759,-1.161052 -2.525728,-1.706189 -4.036294,-1.594482 -2.2797313,0.168589 -4.2383241,1.776234 -4.8181826,3.954845 -0.2117037,0.795402 -0.189112,1.532903 0.054417,1.776432 0.1933979,0.193398 0.3313883,0.198833 5.0481206,0.198833 4.228082,0 4.877592,-0.01983 5.070241,-0.154762 z m 9.069022,-1.464489 c 0.296921,-0.149418 0.379542,-0.617909 0.161518,-0.91587 -0.140815,-0.192443 -0.260264,-0.198833 -3.717218,-0.198833 -3.933793,0 -3.900537,-0.0051 -3.900537,0.603035 0,0.633285 0.03932,0.639845 3.824802,0.638206 2.517401,-0.0011 3.446482,-0.03346 3.631435,-0.126538 z m 3.459694,-3.669707 c 0.177618,-0.177618 0.147955,-0.826737 -0.0451,-0.986962 -0.233816,-0.194054 -10.307349,-0.20196 -10.647143,-0.0084 -0.287352,0.163724 -0.321178,0.849123 -0.04971,1.007239 0.266584,0.155271 10.586212,0.14382 10.741952,-0.01192 z M 13.248734,16.415643 c 1.681232,-0.8577 1.71561,-3.3832 0.05716,-4.198831 -0.60075,-0.29545 -1.696062,-0.327236 -2.185547,-0.06342 -0.826933,0.445682 -1.2723589,1.203095 -1.2717921,2.162588 0.00105,1.781783 1.8207141,2.905453 3.4001831,2.099668 z m 17.754005,-1.888154 c 0.09218,-0.07654 0.164332,-0.280753 0.164332,-0.465127 0,-0.673936 0.31534,-0.641135 -6.163822,-0.641135 -5.186873,0 -5.869113,0.01774 -6.007597,0.156226 -0.205446,0.205446 -0.19946,0.724801 0.01103,0.957394 0.159971,0.176765 0.421422,0.183605 5.999491,0.156953 4.766335,-0.02277 5.862264,-0.0528 5.996563,-0.164311 z"
     id="path4"
     transform="scale(0.26458333)" /><path
     style="fill:#98ff98;stroke-width:0.0497082;fill-opacity:1;stroke:none"
     d="m 29.824949,31.972094 c -1.871195,-0.593507 -3.24914,-2.047242 -3.618255,-3.817265 -0.841179,-4.033711 3.346928,-7.348758 7.024906,-5.560484 0.769334,0.374059 1.661359,1.161464 2.112843,1.865041 0.648044,1.009889 0.90952,2.451343 0.659978,3.63831 -0.217011,1.032234 -0.58378,1.672684 -1.446038,2.525068 -0.778901,0.76998 -1.486074,1.193645 -2.309129,1.383393 -0.597968,0.137856 -1.941815,0.118974 -2.424305,-0.03406 z m 1.929038,-2.929638 c 0.196648,-0.211654 0.921416,-0.983375 1.610597,-1.714934 1.281187,-1.359968 1.480898,-1.623271 1.480898,-1.95245 0,-0.29974 -0.443004,-0.655493 -0.727379,-0.584119 -0.132717,0.03331 -0.867959,0.70678 -1.633872,1.496601 l -1.39257,1.436038 -0.89511,-0.895111 c -0.812608,-0.812608 -0.925678,-0.892159 -1.226754,-0.863089 -0.401041,0.03872 -0.651677,0.404559 -0.551263,0.804641 0.03613,0.143968 0.591046,0.801419 1.233138,1.461002 1.360151,1.397203 1.505829,1.453429 2.102315,0.811421 z"
     id="path5"
     transform="scale(0.26458333)" /></svg>
