<?xml version="1.0" encoding="UTF-8" standalone="no"?>
<svg xmlns="http://www.w3.org/2000/svg" width="40px" height="40px" viewBox="0 0 500 500" version="1.1" id="svg6">
    <g transform="matrix(0.632420003414154, 0, 0, 0.632420003414154, 336.7535095214844, -91.8930892944336)" style=""
       id="g2">
        <ellipse style="fill: rgb(216, 216, 216); stroke: rgb(0, 0, 0);" cx="127.089" cy="486.289" rx="132.497"
                 ry="131.76" id="ellipse1"/>
        <ellipse style="fill: rgb(216, 216, 216); stroke: rgb(0, 0, 0);" cx="129.302" cy="254.234" rx="66.863"
                 ry="66.863" id="ellipse2"/>
    </g>
    <g transform="matrix(0.8184930086135863, 0, 0, 0.8184930086135863, 182.15554809570312, -108.32168579101562)"
       style="" id="g4">
        <ellipse style="fill: rgb(216, 216, 216); stroke: rgb(0, 0, 0);" cx="127.089" cy="486.289" rx="132.497"
                 ry="131.76" id="ellipse3"/>
        <ellipse style="fill: rgb(216, 216, 216); stroke: rgb(0, 0, 0);" cx="129.302" cy="254.234" rx="66.863"
                 ry="66.863" id="ellipse4"/>
    </g>
    <g transform="matrix(0.9999999999999999, 0, 0, 0.9999999999999999, 2.2128779888153076, -116.51963806152344)"
       id="g6">
        <ellipse style="fill: rgb(216, 216, 216); stroke: rgb(0, 0, 0);" cx="127.089" cy="486.289" rx="132.497"
                 ry="131.76" id="ellipse5"/>
        <ellipse style="fill: rgb(216, 216, 216); stroke: rgb(0, 0, 0);" cx="129.302" cy="254.234" rx="66.863"
                 ry="66.863" id="ellipse6"/>
    </g>
    <path d="m 113.416,407.835 q 0,-11.552 2.128,-19.76 2.432,-8.512 7.904,-16.112 5.776,-7.6 15.504,-15.808 11.856,-10.032 18.24,-16.72 6.688,-6.688 9.424,-13.072 2.736,-6.384 2.736,-15.504 0,-14.592 -9.424,-22.496 -9.424,-7.904 -27.36,-7.904 -14.896,0 -26.448,3.952 -11.551997,3.648 -22.191997,8.816 l -9.424,-21.28 q 12.16,-6.384 26.751997,-10.64 14.896,-4.256 33.136,-4.256 28.88,0 44.688,14.288 15.808,14.288 15.808,38.912 0,13.68 -4.56,23.408 -4.256,9.424 -12.464,17.632 -7.904,7.904 -18.848,17.024 -10.032,8.512 -15.504,14.896 -5.168,6.384 -6.992,12.768 -1.824,6.08 -1.824,14.896 v 5.168 h -21.28 z m -6.992,52.896 q 0,-11.248 5.168,-15.808 5.472,-4.56 13.68,-4.56 7.6,0 13.072,4.56 5.472,4.56 5.472,15.808 0,10.944 -5.472,15.808 -5.472,4.864 -13.072,4.864 -8.208,0 -13.68,-4.864 -5.168,-4.864 -5.168,-15.808 z"
          id="text6" style="font-size:304px;font-family:Lato;white-space:pre;fill:#444444"
          transform="matrix(0.9999999999999999, 0, 0, 0.9999999999999999, 0, -1.4210854715202004e-14)" aria-label="?"/>
</svg>
